<svg width="55" height="54" viewBox="0 0 55 54" xmlns="http://www.w3.org/2000/svg">
	<path d="M15.3379 1.81182C16.4203 0.729395 18.1738 0.729395 19.2563 1.81182C20.3387 2.89424 20.3387 4.64776 19.2563 5.73018L10.6074 14.38H33.0138C44.4739 14.38 53.7962 23.0814 53.7962 33.777C53.7962 44.4713 44.4739 53.1739 33.0138 53.1739C31.4835 53.1739 30.2428 51.9346 30.2428 50.4029C30.2428 48.8713 31.4835 47.6319 33.0138 47.6319C41.4174 47.6319 48.2542 41.4161 48.2542 33.777C48.2542 26.1378 41.4174 19.922 33.0138 19.922H10.6077L19.2563 28.5705C20.3387 29.6529 20.3387 31.4064 19.2563 32.4889C18.715 33.0301 18.006 33.3007 17.2971 33.3007C16.5881 33.3007 15.8792 33.03 15.3379 32.4889L2.12124 19.2723C0.9497 18.1007 0.949654 16.2013 2.12114 15.0297L15.3379 1.81182Z" stroke="currentColor" stroke-width="0.6" />
</svg>
