<svg width="53" height="53" viewBox="0 0 53 53" xmlns="http://www.w3.org/2000/svg">
	<path fill-rule="evenodd" clip-rule="evenodd" d="M52 8C52 3.49218 48.5078 0 44 0H8C3.49218 0 0 3.49218 0 8V44C0 45.5297 0.402136 46.9424 1.10963 48.1414C2.47177 50.5517 4.96177 52.1654 7.80779 52.1654H44.2069C47.36 52.1654 50.0761 50.1847 51.3056 47.3345C51.6694 46.5143 51.9007 45.6158 51.9744 44.6641C51.9958 44.4151 52.0067 44.163 52.0067 43.9081L52.0054 32.5062L52 32.5005V8ZM43.539 46H9.0845L8.79749 45.9824C8.04428 45.8897 7.39479 45.4364 7 44.779L14.727 36.5912L14.9589 36.374C15.9247 35.5779 17.3206 35.6503 18.2078 36.5908L20.3688 38.8819L20.6818 39.1867C22.6155 40.9141 25.5083 40.8128 27.3295 38.8826L36.8763 28.7645L37.1082 28.5474C38.074 27.7513 39.4699 27.8236 40.3571 28.7641L45.9975 34.7426L46 43.3917L45.9834 43.6959C45.8413 44.9929 44.8011 46 43.539 46ZM44.5223 24.5839L46 26.1483V9C46 7.21791 45.0349 6.16123 44 6H9C7.21791 6 6.16123 6.9651 6 8V9V37.1725L10.0923 32.8411C13.1383 29.6165 18.0769 29.6165 21.1229 32.8411L23.4061 35.2587L33.4917 24.5839C36.5377 21.3592 41.4763 21.3592 44.5223 24.5839ZM19 11C23.4183 11 27 14.5817 27 19C27 23.4183 23.4183 27 19 27C14.5817 27 11 23.4183 11 19C11 14.5817 14.5817 11 19 11ZM19 17C17.8954 17 17 17.8954 17 19C17 20.1046 17.8954 21 19 21C20.1046 21 21 20.1046 21 19C21 17.8954 20.1046 17 19 17Z" />
</svg>
