<svg t="1629271713970" class="icon" viewBox="0 0 1024 1024" version="1.1" xmlns="http://www.w3.org/2000/svg" p-id="2052" width="32" height="32">
	<path d="M511.5 63.5c-247 0-448 201-448 448s201 448 448 448 448-201 448-448-201-448-448-448z m0 806.4c-197.6 0-358.4-160.8-358.4-358.4s160.8-358.4 358.4-358.4 358.4 160.8 358.4 358.4-160.8 358.4-358.4 358.4z" p-id="2053">
	</path>
	<path d="M645.9 466.7h-89.6v-89.6c0-24.7-20.1-44.8-44.8-44.8s-44.8 20.1-44.8 44.8v89.6h-89.6c-24.7 0-44.8 20.1-44.8 44.8 0 24.7 20.1 44.8 44.8 44.8h89.6v89.6c0 24.7 20.1 44.8 44.8 44.8s44.8-20.1 44.8-44.8v-89.6h89.6c24.7 0 44.8-20.1 44.8-44.8 0-24.8-20.1-44.8-44.8-44.8z" p-id="2054">
	</path>
</svg>
